<?xml version="1.0" encoding="utf-8"?>
<!-- Generator: Adobe Illustrator 23.0.6, SVG Export Plug-In . SVG Version: 6.00 Build 0)  -->
<svg version="1.1" id="Layer_1" xmlns="http://www.w3.org/2000/svg" xmlns:xlink="http://www.w3.org/1999/xlink" x="0px" y="0px"
	 viewBox="0 0 30 30" style="enable-background:new 0 0 30 30;" xml:space="preserve">
<style type="text/css">
	.st0{fill:#FFFFFF;}
</style>
<path class="st0" d="M4.1,17c0-1.2,0.4-2.2,1.1-3.1s1.6-1.5,2.7-1.7c0.3-1.4,1-2.5,2.1-3.4s2.4-1.3,3.8-1.3c0.8,0,1.6,0.1,2.2,0.4
	c0,0,0,0,0,0c0.8,0.3,1.6,0.8,2.2,1.5h0c0.7,0.7,1.1,1.6,1.4,2.6h0.3c1.1,0,2,0.3,2.8,0.9v0c0.5,0.4,1,0.8,1.3,1.3s0.6,1.1,0.7,1.7
	c0,0.2,0.1,0.4,0.1,0.5v0.1c0,0,0,0.1,0,0.2s0,0.2,0,0.2v0c0,0.9-0.2,1.7-0.6,2.5c-0.4,0.8-1,1.4-1.7,1.8c-0.7,0.5-1.5,0.7-2.4,0.7
	c-0.1,0-0.2-0.1-0.2-0.2v-1.3c0-0.1,0.1-0.2,0.2-0.2c0.9,0,1.6-0.4,2.2-1c0.6-0.6,0.9-1.4,0.9-2.3c0-0.9-0.3-1.6-1-2.3
	c-0.6-0.6-1.4-1-2.3-1h-1.6c-0.1,0-0.2-0.1-0.2-0.2L18,12.9c-0.1-1-0.5-1.9-1.3-2.6c0,0,0,0,0,0s0,0,0,0c0,0,0,0,0,0c0,0,0,0,0,0
	c-0.7-0.7-1.6-1-2.6-1.1c-0.1,0-0.2,0-0.3,0c-1.1,0-2.1,0.4-2.9,1.1s-1.3,1.6-1.4,2.7l-0.1,0.6c0,0.1-0.1,0.1-0.2,0.1l-0.5,0
	c-0.8,0.1-1.6,0.5-2.1,1.1s-0.8,1.3-0.8,2.2v0h0c0,0.5,0.1,0.9,0.3,1.4c0.2,0.4,0.5,0.8,0.8,1.1c0.2,0.2,0.4,0.3,0.7,0.5v0
	c0.4,0.2,0.8,0.3,1.2,0.3c0.1,0,0.2,0.1,0.2,0.2v1.3c0,0.1-0.1,0.2-0.2,0.2c-0.5,0-1-0.1-1.5-0.3v0c-0.8-0.3-1.5-0.8-2.1-1.4
	s-0.9-1.4-1.1-2.3v0c0,0,0,0,0,0C4.1,17.6,4.1,17.3,4.1,17z M9.6,24.1c0,0,0-0.1,0-0.1c0,0,0-0.1,0-0.1l0.1-0.6
	c0.1-0.2,0.2-0.4,0.4-0.5s0.4-0.1,0.7-0.1c0.2,0.1,0.4,0.2,0.5,0.4c0.1,0.2,0.1,0.4,0.1,0.6l-0.1,0.6c-0.1,0.4-0.4,0.7-0.8,0.7
	c0,0-0.1,0-0.1,0s-0.1,0-0.1,0c-0.2-0.1-0.4-0.2-0.5-0.3C9.6,24.5,9.6,24.3,9.6,24.1z M10.3,21.2c0-0.2,0.1-0.4,0.2-0.6
	s0.4-0.2,0.6-0.2s0.4,0.1,0.6,0.2s0.2,0.4,0.2,0.6c0,0.2-0.1,0.4-0.2,0.6S11.4,22,11.1,22c-0.2,0-0.4-0.1-0.6-0.2
	C10.4,21.6,10.3,21.4,10.3,21.2z M12,27.2c0,0,0-0.1,0-0.2l0.1-0.6c0.1-0.2,0.2-0.4,0.4-0.5c0.2-0.1,0.4-0.1,0.6-0.1
	c0.2,0,0.4,0.2,0.5,0.4s0.1,0.4,0.1,0.7l-0.1,0.6c-0.1,0.4-0.4,0.6-0.8,0.6c-0.1,0-0.2,0-0.2,0c-0.2-0.1-0.4-0.2-0.5-0.3
	C12,27.5,12,27.3,12,27.2z M12.8,24.3c0-0.2,0.1-0.4,0.2-0.6c0.2-0.2,0.4-0.2,0.6-0.2s0.4,0.1,0.6,0.2c0.2,0.2,0.2,0.4,0.2,0.6
	c0,0.2-0.1,0.4-0.2,0.6c-0.2,0.2-0.4,0.2-0.6,0.2c-0.2,0-0.4-0.1-0.6-0.2S12.8,24.5,12.8,24.3z M13.4,22c0-0.1,0-0.2,0-0.3l0.2-0.9
	c0.1-0.2,0.2-0.4,0.4-0.5c0.2-0.1,0.4-0.1,0.6-0.1c0.2,0.1,0.4,0.2,0.5,0.4s0.1,0.4,0.1,0.6L15,22.1c-0.1,0.3-0.2,0.5-0.4,0.6
	s-0.4,0.1-0.6,0.1c-0.2,0-0.4-0.1-0.4-0.3C13.4,22.3,13.4,22.1,13.4,22z M16.1,24.1c0,0,0-0.1,0-0.1s0-0.1,0-0.1l0.1-0.6
	c0.1-0.2,0.2-0.4,0.4-0.5s0.4-0.1,0.7-0.1c0.2,0.1,0.4,0.2,0.5,0.4c0.1,0.2,0.1,0.4,0.1,0.6l-0.1,0.6C17.7,24.8,17.4,25,17,25
	c0,0-0.1,0-0.1,0s-0.1,0-0.1,0c-0.2-0.1-0.4-0.2-0.5-0.3C16.2,24.5,16.1,24.3,16.1,24.1z M16.9,21.2c0-0.2,0.1-0.4,0.2-0.6
	c0.2-0.2,0.4-0.2,0.6-0.2s0.4,0.1,0.6,0.2c0.2,0.2,0.2,0.4,0.2,0.6c0,0.2-0.1,0.4-0.2,0.6S18,22,17.7,22c-0.2,0-0.4-0.1-0.6-0.2
	C17,21.6,16.9,21.4,16.9,21.2z"/>
</svg>
