<?xml version="1.0" encoding="utf-8"?>
<!-- Generator: Adobe Illustrator 23.0.6, SVG Export Plug-In . SVG Version: 6.00 Build 0)  -->
<svg version="1.1" id="Layer_1" xmlns="http://www.w3.org/2000/svg" xmlns:xlink="http://www.w3.org/1999/xlink" x="0px" y="0px"
	 viewBox="0 0 30 30" style="enable-background:new 0 0 30 30;" xml:space="preserve">
<style type="text/css">
	.st0{fill:#FFFFFF;}
</style>
<path class="st0" d="M2.7,20.9c0,0.2,0.1,0.4,0.3,0.6c0.2,0.2,0.4,0.2,0.6,0.2h18.6c0.2,0,0.4-0.1,0.6-0.2c0.2-0.2,0.3-0.4,0.3-0.6
	c0-0.2-0.1-0.5-0.2-0.6c-0.2-0.2-0.4-0.3-0.6-0.3H3.5c-0.2,0-0.4,0.1-0.6,0.3C2.8,20.5,2.7,20.7,2.7,20.9z M5.3,17.8
	c0,0.2,0.1,0.4,0.3,0.6c0.1,0.2,0.3,0.3,0.6,0.3h18.6c0.2,0,0.4-0.1,0.6-0.3s0.2-0.4,0.2-0.6c0-0.2-0.1-0.4-0.2-0.6S25,17,24.7,17
	H6.1c-0.2,0-0.4,0.1-0.6,0.2C5.3,17.4,5.3,17.6,5.3,17.8z M5.4,15.4L5.4,15.4c0,0.1,0,0.2,0.1,0.2H7c0.1,0,0.1-0.1,0.2-0.1
	c0.2-0.5,0.6-0.9,1.1-1.3c0.5-0.3,1-0.5,1.6-0.6l0.5-0.1c0.1,0,0.2-0.1,0.2-0.2l0.1-0.5c0.1-1.1,0.6-2,1.4-2.7
	C12.7,9.4,13.7,9,14.8,9c1.1,0,2,0.4,2.8,1.1s1.3,1.6,1.4,2.7l0.1,0.6c0,0.1,0.1,0.2,0.2,0.2h1.6c0.6,0,1.2,0.2,1.8,0.5
	c0.5,0.3,0.9,0.8,1.2,1.4c0.1,0.1,0.1,0.1,0.2,0.1h1.4c0.1,0,0.2-0.1,0.1-0.2c-0.2-0.6-0.4-0.9-0.5-1.1c0.7-0.6,1.2-1.5,1.5-2.6
	l0.2-0.7c0-0.1,0-0.1,0-0.2s-0.1-0.1-0.1-0.1L26,10.6c-0.9-0.3-1.6-0.8-2-1.6s-0.6-1.7-0.4-2.6l0.1-0.6c0-0.1,0-0.2-0.1-0.2
	l-0.8-0.2c-1.1-0.3-2.2-0.2-3.2,0.3c-1,0.4-1.9,1.2-2.5,2.1c-0.8-0.3-1.6-0.5-2.3-0.5c-1.4,0-2.6,0.4-3.7,1.3s-1.8,2-2.1,3.4
	c-0.8,0.2-1.6,0.6-2.2,1.2S5.7,14.6,5.4,15.4z M7,24c0,0.2,0.1,0.4,0.3,0.6c0.2,0.2,0.4,0.3,0.6,0.3h18.6c0.2,0,0.4-0.1,0.6-0.3
	s0.2-0.4,0.2-0.6c0-0.2-0.1-0.4-0.2-0.6s-0.4-0.2-0.6-0.2H7.9c-0.2,0-0.4,0.1-0.6,0.2C7.1,23.5,7,23.7,7,24z M18.5,8.7
	c0.4-0.6,0.8-1,1.4-1.3s1.2-0.4,1.9-0.4c-0.1,1,0.2,2,0.7,2.9c0.5,0.9,1.3,1.6,2.2,2c-0.1,0.4-0.4,0.7-0.8,1.1
	c-0.9-0.8-2-1.1-3.1-1.1h-0.3C20.2,10.6,19.5,9.5,18.5,8.7z"/>
</svg>
